<svg width="48" height="37" viewBox="0 0 48 37" fill="none" xmlns="http://www.w3.org/2000/svg">
  <path
    d="M3.5 8C3.5 3.6 7.1 0 11.5 0H41.5C43.7 0 45.5 1.8 45.5 4V28C45.5 32.4 41.9 36 37.5 36H7.5C5.3 36 3.5 34.2 3.5 32V8Z"
    fill="#6BCBFF" />
  <path d="M3.5 8C3.5 3.6 7.1 0 11.5 0H19.5V36H7.5C5.3 36 3.5 34.2 3.5 32V8Z" fill="#36A5E8" />
  <path d="M14.5 10H37.5" stroke="#DFF6FF" stroke-width="3" stroke-linecap="round" />
  <path d="M14.5 18H32.5" stroke="#DFF6FF" stroke-width="3" stroke-linecap="round" />
  <path d="M14.5 26H28.5" stroke="#DFF6FF" stroke-width="3" stroke-linecap="round" />
  <path
    d="M38.5 37C43.4706 37 47.5 33.1944 47.5 28.5C47.5 23.8056 43.4706 20 38.5 20C33.5294 20 29.5 23.8056 29.5 28.5C29.5 33.1944 33.5294 37 38.5 37Z"
    fill="#62D26F" />
  <path d="M35.5 28.8462L37.6 31L41.5 27" stroke="white" stroke-width="4" stroke-linecap="round"
    stroke-linejoin="round" />
  <path d="M1.5 10H9.5" stroke="#BDEBFF" stroke-width="3" stroke-linecap="round" />
  <path d="M1.5 26H9.5" stroke="#BDEBFF" stroke-width="3" stroke-linecap="round" />
</svg>